<svg width="24" height="24" viewBox="0 0 24 24" fill="none" xmlns="http://www.w3.org/2000/svg">
<g id="filtre_icon">
<g id="Group 17877">
<g id="Group 16713">
<g id="Group 16711">
<path id="Line 50" d="M9.09668 19.21L1.53367 19.21" stroke="#E0224A" stroke-width="2.31674" stroke-linecap="round"/>
<path id="Line 53" d="M22.71 19.21L9.09678 19.21" stroke="#FE724C" stroke-opacity="0.25" stroke-width="2.31674" stroke-linecap="round"/>
</g>
<path id="Ellipse 42" d="M12.3604 19.0679C12.3604 17.1486 10.8045 15.5927 8.88527 15.5927C6.96602 15.5927 5.41016 17.1486 5.41016 19.0679C5.41016 20.9871 6.96602 22.543 8.88527 22.543C10.8045 22.543 12.3604 20.9871 12.3604 19.0679Z" fill="#E0224A" stroke="#E0224A" stroke-width="1.73756"/>
</g>
<g id="Group 17828">
<g id="Group 16711_2">
<path id="Line 50_2" d="M15.1475 5.02539L22.7105 5.02539" stroke="#E0224A" stroke-width="2.31674" stroke-linecap="round"/>
<path id="Line 53_2" d="M1.53418 5.02539L15.1474 5.02539" stroke="#FE724C" stroke-opacity="0.25" stroke-width="2.31674" stroke-linecap="round"/>
</g>
<path id="Ellipse 42_2" d="M11.9599 5.1675C11.9599 7.08675 13.5158 8.64261 15.435 8.64261C17.3543 8.64261 18.9102 7.08675 18.9102 5.1675C18.9102 3.24824 17.3543 1.69238 15.435 1.69238C13.5158 1.69238 11.9599 3.24825 11.9599 5.1675Z" fill="#E0224A" stroke="#E0224A" stroke-width="1.73756"/>
</g>
</g>
</g>
</svg>
