<svg width="41" height="41" viewBox="0 0 41 41" fill="none" xmlns="http://www.w3.org/2000/svg">
<path d="M37.1445 10.1789C35.9197 10.7073 34.5868 11.0875 33.2139 11.2356C34.6393 10.3888 35.7067 9.05101 36.2159 7.47319C34.8783 8.26886 33.4131 8.8268 31.8851 9.12226C31.2464 8.43952 30.474 7.89562 29.616 7.52445C28.758 7.15328 27.8327 6.9628 26.8978 6.96486C23.1154 6.96486 20.0734 10.0308 20.0734 13.7933C20.0734 14.3216 20.1374 14.85 20.2415 15.3583C14.5778 15.0621 9.52656 12.3564 6.16838 8.21367C5.55648 9.25881 5.23583 10.4488 5.23978 11.6599C5.23978 14.0294 6.44456 16.1188 8.28175 17.3476C7.19906 17.305 6.14173 17.0074 5.19575 16.479V16.5631C5.19575 19.8812 7.54127 22.631 10.6673 23.2634C10.0804 23.4159 9.47655 23.4939 8.87013 23.4956C8.42584 23.4956 8.00557 23.4516 7.5813 23.3915C8.44586 26.0973 10.9635 28.0626 13.9614 28.1266C11.6159 29.9638 8.67801 31.0445 5.48794 31.0445C4.91557 31.0445 4.38722 31.0245 3.83887 30.9604C6.86483 32.9017 10.4552 34.0224 14.3217 34.0224C26.8738 34.0224 33.7423 23.6237 33.7423 14.5978C33.7423 14.3016 33.7423 14.0054 33.7223 13.7092C35.0511 12.7366 36.2159 11.5318 37.1445 10.1789Z" fill="#E0224A"/>
</svg>
