<svg width="42" height="41" viewBox="0 0 42 41" fill="none" xmlns="http://www.w3.org/2000/svg">
<path d="M36.2102 4.48242H6.75105C6.04259 4.48242 5.47021 5.05479 5.47021 5.76325V35.2224C5.47021 35.9308 6.04259 36.5032 6.75105 36.5032H36.2102C36.9186 36.5032 37.491 35.9308 37.491 35.2224V5.76325C37.491 5.05479 36.9186 4.48242 36.2102 4.48242ZM32.5118 13.8285H29.9541C27.9488 13.8285 27.5605 14.7811 27.5605 16.182V19.268H32.3477L31.7233 24.0991H27.5605V36.5032H22.5693V24.1032H18.3946V19.268H22.5693V15.7057C22.5693 11.571 25.0949 9.31756 28.7853 9.31756C30.5545 9.31756 32.0715 9.44965 32.5158 9.50968V13.8285H32.5118Z" fill="#E0224A"/>
</svg>
