<svg width="39" height="40" viewBox="0 0 39 40" fill="none" xmlns="http://www.w3.org/2000/svg">
<path d="M27.625 3.35352H11.375C6.88769 3.35352 3.25 6.9912 3.25 11.4785V27.7285C3.25 32.2158 6.88769 35.8535 11.375 35.8535H27.625C32.1123 35.8535 35.75 32.2158 35.75 27.7285V11.4785C35.75 6.9912 32.1123 3.35352 27.625 3.35352Z" fill="#E0224A"/>
<path d="M26 18.5798C26.2006 19.9322 25.9696 21.3134 25.3399 22.5269C24.7102 23.7405 23.7139 24.7246 22.4927 25.3392C21.2714 25.9539 19.8875 26.1679 18.5377 25.9507C17.1878 25.7335 15.9409 25.0961 14.9741 24.1294C14.0074 23.1627 13.3701 21.9157 13.1529 20.5659C12.9357 19.216 13.1496 17.8321 13.7643 16.6109C14.379 15.3897 15.3631 14.3933 16.5766 13.7637C17.7902 13.134 19.1714 12.903 20.5238 13.1035C21.9033 13.3081 23.1804 13.9509 24.1665 14.937C25.1526 15.9231 25.7955 17.2003 26 18.5798Z" stroke="white" stroke-width="2" stroke-linecap="round" stroke-linejoin="round"/>
<path d="M28.4375 10.666H28.4537" stroke="white" stroke-width="2" stroke-linecap="round" stroke-linejoin="round"/>
</svg>
